<svg xmlns="http://www.w3.org/2000/svg" width="24" height="24" viewBox="0 0 24 24" fill="none" stroke="#2D6A4F" stroke-width="2" stroke-linecap="round" stroke-linejoin="round">
  <path d="M12 2a9 9 0 0 0-9 9c0 1.7.5 3.3 1.5 4.5L12 22l7.5-6.5c1-1.2 1.5-2.8 1.5-4.5a9 9 0 0 0-9-9Z"></path>
  <path d="M8 12.5v-2a2 2 0 0 1 2-2h4a2 2 0 0 1 2 2v2"></path>
  <path d="M9.5 12.5v-1a1 1 0 0 1 1-1h3a1 1 0 0 1 1 1v1"></path>
  <path d="M12 6.5v-1"></path>
  <path d="M10.5 8.5a10 10 0 0 1 3 0"></path>
  <path d="M8 16.5a15.2 15.2 0 0 0 8 0"></path>
</svg>